<?xml version="1.0" standalone="no"?>
<!DOCTYPE svg PUBLIC "-//W3C//DTD SVG 20010904//EN"
 "http://www.w3.org/TR/2001/REC-SVG-20010904/DTD/svg10.dtd">
<svg version="1.0" xmlns="http://www.w3.org/2000/svg"
 width="986.000000pt" height="986.000000pt" viewBox="0 0 986.000000 986.000000"
 preserveAspectRatio="xMidYMid meet">
<metadata>
Created by potrace 1.11, written by Peter Selinger 2001-2013
</metadata>
<g transform="translate(0.000000,986.000000) scale(0.100000,-0.100000)"
fill="#000000" stroke="none">
<path d="M3186 8642 c-2 -4 4 -8 14 -8 10 0 16 4 14 8 -3 4 -9 8 -14 8 -5 0
-11 -4 -14 -8z"/>
<path d="M6035 8629 c-4 -6 -5 -12 -2 -15 2 -3 7 2 10 11 7 17 1 20 -8 4z"/>
<path d="M6133 8265 c0 -8 4 -12 9 -9 5 3 6 10 3 15 -9 13 -12 11 -12 -6z"/>
<path d="M3056 8253 c-6 -14 -5 -15 5 -6 7 7 10 15 7 18 -3 3 -9 -2 -12 -12z"/>
<path d="M5436 8198 c3 -5 10 -6 15 -3 13 9 11 12 -6 12 -8 0 -12 -4 -9 -9z"/>
<path d="M4619 8166 c-2 -2 -39 -7 -82 -11 -43 -3 -88 -8 -100 -10 -12 -2 -53
-9 -92 -15 -166 -25 -336 -66 -507 -122 -79 -26 -110 -33 -118 -24 -8 8 -9 6
-5 -6 5 -13 2 -18 -9 -18 -9 0 -24 -4 -34 -10 -28 -15 -89 -41 -104 -44 -7 -1
-38 -14 -68 -28 -30 -15 -59 -26 -64 -26 -5 0 -12 -4 -15 -9 -3 -4 -28 -19
-56 -33 -27 -13 -90 -48 -139 -77 -49 -29 -92 -53 -96 -53 -4 0 -13 -7 -20
-15 -7 -9 -20 -13 -29 -10 -8 3 -12 3 -8 -1 8 -8 -28 -41 -54 -49 -11 -4 -19
-11 -19 -16 0 -5 -7 -9 -15 -9 -8 0 -15 -5 -15 -11 0 -6 -7 -9 -15 -5 -8 3
-14 2 -12 -3 1 -5 -32 -34 -73 -66 -41 -32 -107 -86 -146 -121 -39 -35 -74
-61 -78 -57 -3 3 -6 2 -6 -3 0 -5 -13 -24 -30 -42 -16 -18 -30 -31 -30 -29 0
3 -42 -38 -92 -91 -51 -54 -98 -96 -105 -96 -6 1 -10 -4 -7 -10 2 -6 -18 -34
-44 -63 -26 -29 -55 -62 -65 -75 -10 -13 -29 -36 -42 -53 -13 -16 -44 -58 -70
-93 -25 -35 -50 -60 -55 -57 -6 3 -7 -1 -4 -10 4 -9 -1 -23 -9 -33 -9 -9 -42
-61 -75 -114 -32 -54 -63 -94 -67 -90 -5 4 -5 2 -2 -4 7 -12 -14 -64 -25 -64
-5 0 -8 -6 -8 -14 0 -8 -8 -22 -18 -32 -9 -10 -16 -19 -14 -21 7 -9 1 -23 -8
-18 -6 4 -7 -1 -3 -10 3 -10 2 -20 -4 -24 -5 -3 -20 -32 -32 -63 -13 -32 -27
-58 -32 -58 -5 0 -6 -7 -3 -15 4 -8 -1 -17 -10 -21 -9 -3 -13 -10 -11 -15 3
-5 -1 -22 -10 -39 -8 -16 -15 -32 -15 -35 1 -22 -1 -25 -12 -19 -6 4 -8 3 -5
-3 7 -10 -10 -73 -22 -83 -3 -3 -7 -12 -8 -20 -1 -8 -20 -80 -43 -160 -22 -80
-51 -199 -64 -265 -23 -114 -27 -142 -44 -280 -9 -77 -9 -779 0 -865 26 -237
103 -568 178 -760 83 -213 144 -344 225 -485 71 -123 197 -316 219 -334 9 -7
16 -17 16 -22 0 -5 11 -22 24 -37 13 -15 57 -67 99 -117 104 -124 278 -300
438 -440 88 -78 285 -220 424 -305 227 -140 627 -309 868 -366 9 -2 25 -6 35
-8 49 -12 220 -49 237 -51 11 -2 43 -6 70 -9 28 -4 61 -9 75 -11 90 -15 192
-19 480 -20 179 0 352 4 385 8 33 4 80 10 105 13 63 8 272 44 280 49 4 2 21 7
39 10 81 14 304 81 424 127 43 16 85 31 92 32 8 1 18 6 22 10 4 4 24 15 43 23
41 19 37 17 73 27 15 5 27 12 27 17 0 5 9 9 19 9 11 0 21 3 23 8 2 4 32 22 68
41 154 80 448 272 525 344 8 7 35 30 61 52 55 46 253 235 324 310 137 144 288
339 402 520 78 124 208 381 266 527 21 54 41 95 44 92 3 -3 5 1 5 8 -3 20 24
118 32 118 4 0 7 8 8 18 1 9 3 24 5 32 3 8 10 41 18 72 7 33 17 55 23 51 6 -3
7 -1 3 6 -10 16 15 122 27 114 6 -3 7 -1 3 6 -6 10 0 70 19 168 2 10 4 26 4
36 1 12 5 16 14 11 9 -6 9 -5 0 8 -7 8 -10 18 -7 21 3 3 6 22 6 41 0 20 3 34
7 32 7 -5 9 61 10 419 1 375 -8 485 -64 770 -81 411 -291 886 -550 1240 -145
198 -341 413 -535 585 -40 36 -78 70 -84 75 -6 6 -36 29 -66 53 -30 23 -64 49
-75 58 -39 31 -271 184 -325 214 -117 66 -399 200 -435 207 -11 2 -24 8 -29
13 -6 6 -15 10 -22 10 -6 0 -29 8 -50 17 -22 9 -43 16 -48 15 -4 -2 -14 2 -20
8 -7 5 -16 7 -19 3 -4 -3 -7 -1 -7 5 0 7 -13 12 -28 12 -16 0 -32 3 -36 7 -3
4 -12 8 -19 9 -7 1 -41 10 -77 19 -36 9 -76 19 -90 21 -14 3 -34 8 -45 11 -11
4 -27 8 -35 9 -86 15 -148 26 -160 31 -8 3 -46 7 -85 9 -38 3 -81 8 -95 11
-28 7 -714 16 -721 9z m526 -310 c39 -3 86 -9 105 -12 19 -4 46 -8 60 -9 83
-9 135 -17 141 -21 4 -2 22 -6 40 -9 19 -2 52 -9 74 -15 57 -15 76 -20 107
-25 15 -3 38 -9 51 -14 14 -6 27 -7 30 -5 3 3 8 1 11 -5 6 -10 -15 -8 -54 4
-22 7 -54 14 -100 21 -19 3 -43 7 -52 10 -48 14 -164 27 -348 40 -212 14 -508
5 -685 -21 -16 -2 -55 -7 -85 -10 -30 -3 -62 -7 -70 -10 -8 -2 -28 -7 -45 -10
-16 -2 -41 -7 -55 -10 -14 -4 -38 -8 -55 -11 -66 -11 -260 -66 -366 -104 -131
-47 -138 -41 -11 7 168 65 429 140 546 159 21 3 48 8 60 10 76 15 135 24 143
23 4 -1 10 0 13 1 13 5 43 8 135 15 55 4 101 8 103 10 4 4 226 -2 307 -9z
m660 -134 c-3 -3 -11 0 -18 7 -9 10 -8 11 6 5 10 -3 15 -9 12 -12z m-2085
-132 c-8 -5 -19 -10 -25 -10 -5 0 -3 5 5 10 8 5 20 10 25 10 6 0 3 -5 -5 -10z
m2484 -19 c-2 -3 -12 3 -22 13 -16 17 -16 18 5 5 12 -7 20 -15 17 -18z m-2524
4 c0 -5 -69 -35 -79 -34 -5 0 68 38 77 39 1 0 2 -2 2 -5z m2680 -74 c41 -22
96 -50 123 -63 26 -13 47 -26 47 -30 0 -5 5 -8 11 -8 22 0 235 -148 374 -259
139 -111 276 -246 375 -370 19 -24 40 -48 45 -55 18 -19 135 -176 135 -181 0
-2 23 -38 50 -78 28 -41 50 -79 50 -85 0 -7 3 -12 8 -12 4 0 12 -9 17 -19 66
-128 184 -363 186 -369 1 -4 5 -16 9 -27 53 -139 78 -206 85 -235 1 -3 6 -16
12 -30 30 -71 107 -411 119 -525 3 -27 7 -56 9 -62 8 -25 20 -221 20 -333 0
-168 -16 -322 -51 -505 -3 -16 -6 -37 -8 -45 -14 -87 -19 -110 -26 -110 -5 0
-6 -9 -3 -20 3 -11 0 -20 -6 -20 -5 0 -8 -6 -5 -13 3 -8 0 -27 -7 -43 -6 -16
-13 -40 -15 -53 -2 -13 -6 -31 -10 -40 -9 -19 -12 -30 -18 -56 -2 -11 -5 -20
-6 -20 -1 0 -3 -7 -5 -15 -2 -8 -11 -33 -19 -55 -8 -22 -15 -48 -16 -57 0 -10
-4 -18 -9 -18 -5 0 -11 -10 -14 -22 -12 -47 -32 -98 -39 -98 -5 0 -8 -7 -8
-15 0 -28 -121 -265 -132 -259 -7 4 -8 2 -4 -4 9 -15 -22 -75 -34 -67 -6 3 -7
0 -5 -8 5 -13 -106 -196 -183 -302 -83 -113 -227 -280 -312 -360 -107 -102
-153 -141 -275 -232 -60 -46 -115 -87 -122 -93 -7 -6 -24 -15 -38 -22 -14 -6
-25 -15 -25 -20 0 -4 -4 -8 -10 -8 -5 0 -40 -19 -77 -42 -38 -22 -90 -53 -117
-68 l-49 -28 -66 20 c-36 11 -82 22 -101 25 -19 3 -37 8 -40 12 -3 3 -14 6
-25 6 -11 0 -44 3 -74 8 -41 6 -56 5 -63 -5 -8 -14 -8 -14 -13 47 -1 17 -3 37
-4 46 -1 21 -68 89 -86 89 -8 0 -15 5 -15 10 0 6 -7 10 -16 10 -9 0 -12 5 -8
12 5 7 3 8 -5 3 -12 -7 -61 9 -124 41 -15 7 -25 9 -22 4 3 -5 -12 -3 -34 5
-21 7 -56 16 -78 19 -21 3 -49 8 -63 11 -49 9 -86 15 -140 21 -30 3 -63 8 -74
10 -16 3 -182 15 -259 18 -15 1 -31 6 -35 13 -7 11 -8 960 -1 967 2 3 31 8 64
11 33 4 69 11 80 15 11 4 22 8 25 8 17 0 105 27 160 48 181 71 341 187 455
329 22 28 43 52 48 53 4 2 7 10 7 18 0 8 3 14 8 14 4 0 12 10 18 23 7 12 28
54 48 92 20 39 36 76 36 83 0 6 4 12 10 12 5 0 9 3 8 8 -3 14 14 82 21 78 3
-2 7 10 7 27 2 32 11 81 19 105 3 8 8 44 11 80 4 37 11 69 16 71 6 2 4 7 -3
11 -10 7 -10 11 0 24 8 9 9 16 4 16 -10 0 -11 50 0 67 4 6 3 14 -1 17 -5 3 -8
18 -8 33 2 25 6 28 39 31 l37 3 -4 -43 c-2 -24 -5 -43 -6 -43 -1 0 -3 -16 -6
-35 -2 -19 -6 -48 -10 -65 -3 -16 -7 -43 -8 -60 -2 -16 -5 -30 -6 -30 -1 0 -3
-13 -4 -30 -6 -63 -18 -140 -24 -149 -5 -8 -10 -52 -13 -106 0 -8 -3 -22 -6
-30 -4 -8 -7 -28 -9 -45 -1 -16 -5 -55 -9 -85 -4 -30 -8 -61 -8 -67 0 -7 -3
-13 -6 -13 -3 0 -6 -15 -6 -32 -1 -29 -7 -78 -20 -168 -2 -14 -6 -47 -10 -75
-6 -52 -12 -90 -15 -90 -1 0 -6 -55 -11 -132 -2 -29 -8 -53 -14 -53 -7 0 -7
-3 0 -8 6 -4 11 -25 12 -47 5 -133 68 -196 201 -204 6 -1 12 -7 12 -14 0 -18
48 -41 83 -39 15 0 25 -2 23 -6 -4 -7 24 -9 172 -12 50 -1 90 -5 88 -9 -7 -11
118 -4 149 9 17 7 35 12 40 11 6 -2 7 0 3 4 -4 4 2 17 13 29 22 23 79 139 79
160 0 7 3 16 8 20 4 4 8 12 8 17 1 5 2 13 3 18 0 4 24 2 52 -5 29 -8 68 -14
88 -15 20 -1 44 -7 55 -12 12 -6 16 -6 12 1 -3 5 10 17 29 26 19 9 35 23 35
31 0 8 5 15 12 15 6 0 9 3 6 6 -4 3 0 20 7 38 8 18 16 44 19 57 2 13 14 58 24
99 11 42 23 93 26 114 4 21 8 41 10 45 3 4 7 27 10 51 3 25 8 57 11 72 3 16 7
40 10 55 2 16 6 43 9 61 5 35 39 86 50 75 3 -3 6 -1 6 5 0 18 82 102 93 95 5
-3 7 -2 4 4 -3 5 9 27 28 47 19 21 37 46 40 57 4 11 10 17 14 15 4 -3 5 11 3
31 -3 23 -1 33 6 29 6 -3 14 -1 18 5 4 8 3 9 -4 5 -8 -5 -12 4 -12 28 0 20 4
36 10 36 6 0 6 9 0 24 -5 13 -7 26 -5 28 5 4 9 42 21 158 3 36 7 81 9 100 2
19 7 73 10 120 7 84 6 86 -20 113 -15 15 -34 27 -41 27 -7 0 -16 5 -20 12 -5
7 -3 8 7 3 8 -5 5 1 -5 13 -11 12 -16 22 -12 22 4 0 0 7 -8 16 -9 8 -13 20
-10 26 4 6 3 8 -3 5 -14 -9 -61 46 -84 99 -14 31 -19 57 -15 78 5 24 3 27 -5
16 -8 -12 -10 -8 -6 18 2 17 1 32 -2 32 -6 0 -13 99 -15 217 0 35 -4 63 -7 63
-4 0 -7 15 -6 33 0 17 -3 51 -7 73 -4 23 -9 63 -12 90 -8 76 -12 107 -18 134
-3 13 -8 42 -11 63 -4 22 -10 50 -15 63 -5 13 -8 24 -5 24 2 0 -1 15 -6 33
-11 37 -18 61 -25 96 -3 14 -7 28 -10 33 -3 4 -7 16 -9 25 -4 21 -32 109 -44
138 -67 161 -89 212 -126 280 -57 104 -133 212 -196 277 -30 31 -53 64 -54 78
-5 50 -27 116 -57 169 -40 70 -168 199 -258 261 -19 13 -37 27 -40 30 -10 11
-88 59 -138 84 -29 14 -52 28 -52 31 0 7 59 -20 140 -64z m-2780 24 c-7 -8
-20 -15 -29 -15 -11 1 -8 5 9 15 32 18 35 18 20 0z m-70 -35 c0 -5 -5 -10 -10
-10 -6 0 -33 -16 -60 -35 -27 -19 -52 -35 -55 -35 -20 0 -235 -216 -235 -236
0 -8 -4 -14 -9 -14 -5 0 -13 -9 -16 -20 -4 -11 -11 -18 -16 -15 -5 3 -6 -1 -3
-10 4 -9 -2 -25 -11 -35 -10 -11 -15 -20 -12 -20 4 0 3 -10 -2 -22 -5 -13 -5
-33 0 -46 10 -25 -16 -66 -35 -55 -6 3 -8 2 -3 -2 10 -11 -33 -56 -46 -48 -6
3 -7 1 -3 -5 4 -6 -2 -20 -14 -32 -11 -11 -20 -23 -20 -28 0 -4 -11 -19 -25
-34 -14 -15 -25 -34 -25 -43 0 -8 -4 -15 -8 -15 -5 0 -23 -29 -40 -65 -18 -35
-37 -67 -42 -70 -6 -3 -10 -12 -10 -20 0 -8 -15 -47 -34 -87 -29 -61 -43 -97
-51 -128 -1 -3 -4 -12 -8 -20 -11 -28 -30 -95 -27 -95 1 0 -4 -16 -12 -35 -8
-19 -19 -53 -23 -75 -5 -22 -10 -44 -11 -50 -2 -5 -6 -23 -9 -40 -4 -16 -8
-37 -10 -45 -2 -8 -4 -15 -5 -15 -1 0 -3 -9 -4 -20 -1 -11 -6 -37 -10 -58 -6
-34 -10 -59 -22 -142 -2 -16 -7 -55 -10 -86 -7 -76 -8 -82 -17 -96 -4 -6 -3
-14 3 -18 6 -4 8 -11 4 -16 -5 -9 -8 -45 -15 -184 -1 -27 -5 -54 -9 -60 -4 -5
-10 -28 -13 -50 -14 -100 -20 -110 -109 -206 -15 -16 -30 -40 -34 -53 -3 -14
-18 -29 -36 -37 -44 -18 -57 -45 -53 -109 6 -90 15 -211 20 -280 3 -36 7 -92
10 -125 7 -97 16 -167 25 -190 9 -23 54 -79 137 -173 82 -91 84 -94 86 -176 1
-41 5 -72 9 -70 4 3 7 -4 7 -13 0 -38 8 -93 14 -100 4 -3 7 -19 7 -34 0 -15 4
-39 10 -54 7 -19 7 -24 -1 -19 -7 4 -7 -1 1 -16 7 -12 13 -32 15 -44 2 -11 11
-48 20 -81 9 -33 17 -70 17 -82 0 -13 4 -23 8 -23 4 0 13 -14 20 -30 7 -17 15
-28 18 -25 3 3 16 -2 29 -10 23 -15 36 -15 152 0 18 2 41 7 51 10 14 4 20 -3
29 -41 13 -51 62 -159 84 -186 27 -34 98 -57 162 -52 33 2 69 6 80 8 11 2 28
1 39 -3 10 -4 46 -4 80 0 33 5 88 11 120 14 57 6 86 21 86 44 0 6 12 11 28 12
98 2 160 47 183 133 11 38 13 171 5 241 -9 76 -18 164 -21 205 -2 25 -5 45 -6
45 -1 0 -3 28 -4 62 -2 34 -5 65 -8 70 -6 9 -19 112 -20 156 0 15 -3 27 -6 27
-3 0 -7 17 -7 38 -1 20 -4 55 -7 77 -6 51 -18 132 -23 165 -2 14 -6 52 -10 85
-3 33 -7 65 -9 72 -6 18 -19 153 -20 197 0 23 5 41 13 43 7 3 10 -1 6 -11 -3
-9 -1 -22 4 -29 6 -7 13 -75 16 -150 3 -76 8 -142 11 -147 3 -5 8 -28 11 -52
9 -66 62 -227 94 -284 16 -29 26 -55 23 -58 -4 -3 -1 -6 5 -6 11 0 28 -38 23
-55 -1 -5 1 -7 4 -3 4 4 20 -10 35 -31 35 -48 85 -105 130 -149 19 -18 34 -38
33 -43 -2 -5 1 -8 5 -6 11 3 132 -85 132 -95 0 -5 3 -7 8 -6 4 1 50 -19 102
-44 111 -54 193 -82 310 -106 l85 -17 1 -352 c0 -223 -3 -350 -9 -346 -6 4 -7
1 -1 -8 10 -17 16 -269 6 -270 -28 -3 -92 -8 -177 -13 -55 -4 -118 -9 -140
-12 -22 -3 -53 -7 -70 -9 -106 -12 -151 -21 -250 -45 -134 -34 -206 -61 -267
-99 -63 -40 -79 -68 -80 -139 -1 -57 -2 -59 -28 -60 -15 0 -65 -12 -112 -26
-46 -14 -90 -26 -97 -26 -13 0 -101 39 -111 50 -3 3 -21 14 -40 24 -92 50
-379 247 -436 301 -6 5 -38 33 -70 61 -92 81 -124 113 -124 126 0 6 -3 9 -6 6
-3 -4 -22 12 -42 35 -20 23 -56 62 -79 87 -24 25 -43 48 -43 53 0 4 -14 22
-31 40 -37 38 -170 223 -207 287 -14 25 -31 52 -38 60 -15 19 -61 104 -130
241 -172 343 -286 745 -321 1134 -14 151 -8 459 12 575 2 14 6 43 10 65 3 22
13 78 21 125 9 47 18 96 21 109 5 32 42 172 50 191 4 8 7 17 8 20 9 38 60 188
66 196 5 6 6 14 2 17 -3 4 -1 7 5 7 7 0 11 3 10 8 -2 13 26 102 33 102 4 0 10
14 14 30 4 17 11 30 16 30 5 0 9 8 9 18 0 10 3 22 8 26 4 4 7 11 7 14 1 4 6
17 13 28 6 12 8 24 5 28 -3 3 -2 6 4 6 6 0 18 18 27 41 10 25 21 37 28 33 7
-4 8 -3 4 4 -7 12 62 152 75 152 4 0 9 10 13 23 3 12 16 33 28 47 13 14 24 32
26 40 2 8 12 23 23 32 11 9 19 20 18 23 -3 13 96 143 105 138 5 -4 6 -2 3 4
-4 6 6 24 21 41 15 17 35 42 46 56 10 14 23 23 29 19 6 -3 7 -1 3 5 -7 12 29
55 136 163 36 37 69 65 72 62 3 -4 6 -1 6 6 0 7 5 9 10 6 6 -4 9 -2 8 3 -6 18
158 156 173 146 5 -3 8 -1 7 5 -4 12 92 87 197 152 28 18 66 42 85 55 33 21
192 113 198 114 1 0 2 -4 2 -10z m1897 -224 c21 -3 56 -9 78 -12 22 -3 47 -7
55 -9 8 -2 31 -7 50 -10 50 -9 204 -54 278 -82 134 -50 222 -98 432 -238 85
-57 175 -113 199 -125 54 -27 104 -30 129 -7 30 27 47 20 102 -40 142 -159
288 -466 335 -703 2 -8 4 -16 5 -17 2 -2 3 -6 4 -10 6 -27 19 -91 22 -108 1
-11 5 -30 8 -41 6 -30 17 -94 21 -124 1 -14 6 -52 11 -85 4 -33 8 -84 8 -112
1 -29 3 -53 6 -53 3 0 6 -21 7 -48 0 -26 3 -71 6 -99 3 -36 1 -53 -7 -53 -7 0
-8 -3 0 -8 6 -4 11 -46 13 -95 1 -68 -2 -91 -14 -103 -8 -8 -16 -32 -16 -52
-1 -20 -3 -52 -5 -71 -3 -24 2 -41 21 -62 13 -16 28 -31 32 -32 4 -1 7 -6 5
-10 -1 -5 2 -6 7 -3 10 7 138 -72 159 -96 8 -11 10 -53 2 -53 -1 0 -3 -9 -4
-20 -8 -58 -30 -166 -36 -170 -3 -2 -6 13 -6 33 -2 83 -6 98 -34 129 -16 18
-42 35 -57 37 -15 2 -48 8 -73 12 -25 4 -56 7 -70 6 -25 -2 -25 0 -25 66 1 37
-2 72 -4 77 -6 11 -7 14 -16 59 -17 85 -77 131 -182 142 -32 4 -71 13 -87 21
-15 8 -44 16 -65 18 -20 2 -56 7 -81 11 -25 3 -53 6 -62 6 -10 -1 -20 3 -23 7
-6 11 -55 1 -55 -11 0 -5 -5 -6 -12 -2 -6 4 -8 3 -5 -2 3 -6 2 -16 -2 -23 -6
-10 -12 -9 -25 4 -9 9 -16 13 -16 8 0 -4 -19 -7 -42 -7 -96 3 -166 -61 -183
-166 -13 -75 -26 -92 -21 -26 l5 58 -54 -4 c-30 -3 -54 -2 -53 1 2 25 -6 31
-46 31 -48 0 -65 -14 -60 -47 4 -24 0 -26 -55 -24 -40 1 -49 7 -34 22 7 7 8
22 4 38 -4 14 -7 97 -7 184 1 155 1 158 -21 163 l-22 6 -3 656 c-4 648 -4 658
-26 730 -29 94 -82 202 -133 270 -49 65 -159 172 -176 172 -7 0 -13 4 -13 8 0
5 -36 27 -80 51 -44 23 -80 44 -80 45 0 4 33 0 87 -8z m-912 -6 c-3 -5 -12
-10 -18 -10 -7 0 -47 -23 -90 -50 -86 -55 -186 -149 -234 -220 -30 -44 -103
-183 -104 -197 -1 -21 -24 -93 -29 -93 -3 0 -6 -28 -7 -62 -2 -36 -8 -65 -15
-70 -8 -4 -9 -8 -2 -8 14 0 13 -102 -1 -112 -7 -5 -7 -8 0 -8 12 0 14 -194 3
-206 -4 -4 -4 -12 -1 -18 11 -16 11 -56 1 -62 -4 -3 -5 -11 -1 -17 10 -17 11
-127 1 -134 -5 -2 -4 -11 2 -18 8 -9 8 -15 0 -20 -6 -3 -7 -12 -3 -18 4 -7 8
-141 8 -300 l0 -288 -35 -9 -35 -9 -2 -168 c-4 -247 -2 -236 -41 -237 -19 -1
-36 3 -39 7 -3 4 -11 3 -19 -4 -12 -9 -14 -5 -14 24 0 31 -20 64 -31 52 -3 -2
-21 -5 -42 -7 -28 -1 -37 -6 -37 -20 0 -21 -1 -21 -32 -9 -16 6 -29 23 -38 51
-10 31 -24 47 -55 66 -46 26 -136 39 -166 24 -14 -8 -19 -5 -25 13 -5 12 -7
24 -7 28 1 3 -13 4 -30 3 -18 -2 -48 -4 -67 -5 -19 -1 -43 -6 -52 -11 -12 -6
-18 -5 -18 3 0 8 -4 8 -12 2 -7 -6 -29 -10 -48 -10 -19 0 -46 -6 -60 -13 -14
-8 -32 -14 -40 -15 -77 -8 -137 -19 -147 -27 -7 -6 -13 -7 -13 -3 0 4 -9 -4
-21 -19 -11 -14 -26 -23 -32 -19 -7 3 -9 3 -5 -2 4 -4 1 -19 -6 -34 -12 -23
-20 -55 -33 -131 -2 -14 -4 -41 -4 -60 -1 -54 -6 -63 -28 -51 -10 6 -22 7 -25
3 -4 -4 -29 -8 -54 -8 -26 -1 -47 -3 -47 -4 0 -1 -11 -3 -24 -6 -30 -5 -68
-46 -78 -82 -10 -39 -10 -38 -12 -84 -2 -35 -4 -39 -11 -22 -4 12 -11 45 -14
75 -3 30 -10 76 -15 102 -5 29 -5 47 1 47 5 0 7 4 4 9 -5 8 22 27 148 99 68
39 84 60 80 104 -3 23 -6 44 -9 46 -2 3 0 13 5 23 7 12 7 20 0 24 -6 4 -8 11
-5 16 4 5 1 9 -5 9 -14 0 -4 323 15 480 3 25 7 68 10 96 3 28 8 61 10 74 3 14
7 40 10 60 5 36 10 61 20 103 4 12 8 36 11 52 6 39 12 69 14 73 3 3 5 11 14
55 5 20 12 40 17 43 5 3 7 9 4 14 -3 4 4 29 15 54 10 25 17 46 13 46 -3 0 0 6
6 13 6 8 12 22 14 33 1 10 7 26 12 34 10 15 11 20 14 41 0 5 5 7 11 4 5 -3 7
0 4 8 -5 15 32 97 50 109 6 4 7 8 3 8 -9 0 15 44 75 132 46 70 60 87 117 143
l43 44 28 -21 c47 -34 79 -25 232 67 117 71 272 156 283 155 3 0 19 7 35 15
17 9 36 13 42 9 6 -4 8 -3 5 3 -6 10 23 23 47 22 5 -1 12 4 15 9 9 14 252 103
350 128 9 2 59 15 111 28 105 27 144 31 135 16z m-564 -2517 c1 -5 2 -51 3
-103 4 -128 13 -189 47 -292 66 -202 181 -363 349 -487 70 -52 200 -125 200
-113 0 4 4 2 8 -4 9 -13 114 -43 202 -58 54 -10 65 -15 65 -31 0 -11 -4 -19
-10 -19 -5 1 -32 5 -60 8 -95 13 -143 25 -275 72 -8 3 -17 5 -20 5 -3 0 -13 8
-24 17 -10 9 -21 16 -25 16 -26 -5 -156 84 -234 161 -71 70 -127 147 -172 235
-32 63 -73 179 -81 229 -3 18 -7 43 -10 55 -15 79 -25 249 -16 294 3 15 11 22
28 22 13 0 24 -3 25 -7z m1998 -108 c-2 -70 -7 -115 -13 -115 -6 0 -6 -4 1
-11 7 -7 8 -20 3 -33 -4 -11 -10 -39 -13 -61 -16 -109 -72 -251 -143 -362 -31
-48 -147 -173 -204 -218 -42 -33 -172 -104 -230 -126 -66 -25 -183 -56 -242
-64 -24 -3 -53 -7 -65 -9 -18 -3 -23 2 -23 19 0 20 7 23 58 29 144 16 372 121
470 215 12 12 27 19 34 15 6 -4 9 -3 5 2 -3 5 15 30 40 54 25 25 71 84 103
132 31 48 61 84 65 80 5 -4 5 -2 2 4 -4 7 2 31 12 55 33 79 35 83 51 144 6 22
13 49 16 60 9 33 15 105 17 207 l2 98 28 0 28 0 -2 -115z"/>
<path d="M7385 5100 c-3 -6 1 -7 9 -4 18 7 21 14 7 14 -6 0 -13 -4 -16 -10z"/>
<path d="M5920 3626 c0 -2 8 -10 18 -17 15 -13 16 -12 3 4 -13 16 -21 21 -21
13z"/>
<path d="M7349 3603 c-13 -16 -12 -17 4 -4 16 13 21 21 13 21 -2 0 -10 -8 -17
-17z"/>
<path d="M7506 3558 c3 -5 10 -6 15 -3 13 9 11 12 -6 12 -8 0 -12 -4 -9 -9z"/>
<path d="M7026 3118 c3 -5 10 -6 15 -3 13 9 11 12 -6 12 -8 0 -12 -4 -9 -9z"/>
<path d="M6704 3002 c4 -3 14 -7 22 -8 9 -1 13 0 10 4 -4 3 -14 7 -22 8 -9 1
-13 0 -10 -4z"/>
<path d="M6227 2959 c7 -7 15 -10 18 -7 3 3 -2 9 -12 12 -14 6 -15 5 -6 -5z"/>
<path d="M6719 2873 c-13 -16 -12 -17 4 -4 9 7 17 15 17 17 0 8 -8 3 -21 -13z"/>
<path d="M6613 2655 c0 -8 4 -12 9 -9 5 3 6 10 3 15 -9 13 -12 11 -12 -6z"/>
<path d="M5865 2419 c-3 -4 2 -6 10 -5 21 3 28 13 10 13 -9 0 -18 -4 -20 -8z"/>
<path d="M2559 6193 c-13 -16 -12 -17 4 -4 16 13 21 21 13 21 -2 0 -10 -8 -17
-17z"/>
<path d="M2385 5880 c-3 -6 1 -7 9 -4 18 7 21 14 7 14 -6 0 -13 -4 -16 -10z"/>
<path d="M2113 5865 c0 -8 4 -12 9 -9 5 3 6 10 3 15 -9 13 -12 11 -12 -6z"/>
<path d="M2396 5802 c-3 -5 1 -9 9 -9 8 0 12 4 9 9 -3 4 -7 8 -9 8 -2 0 -6 -4
-9 -8z"/>
<path d="M2400 5546 c0 -2 8 -10 18 -17 15 -13 16 -12 3 4 -13 16 -21 21 -21
13z"/>
<path d="M2496 3307 c3 -10 9 -15 12 -12 3 3 0 11 -7 18 -10 9 -11 8 -5 -6z"/>
<path d="M2557 3273 c-10 -9 -9 -23 1 -23 5 0 9 7 9 15 0 17 -1 18 -10 8z"/>
<path d="M6716 5282 c-3 -5 1 -9 9 -9 8 0 12 4 9 9 -3 4 -7 8 -9 8 -2 0 -6 -4
-9 -8z"/>
<path d="M6550 5261 c0 -6 4 -13 10 -16 6 -3 7 1 4 9 -7 18 -14 21 -14 7z"/>
<path d="M6295 5221 c-3 -5 -2 -12 3 -15 5 -3 9 1 9 9 0 17 -3 19 -12 6z"/>
<path d="M3733 6815 c0 -8 4 -12 9 -9 5 3 6 10 3 15 -9 13 -12 11 -12 -6z"/>
<path d="M3185 6199 c-3 -4 2 -6 10 -5 21 3 28 13 10 13 -9 0 -18 -4 -20 -8z"/>
<path d="M3415 6191 c-3 -5 -2 -12 3 -15 5 -3 9 1 9 9 0 17 -3 19 -12 6z"/>
<path d="M3150 6022 c0 -5 7 -9 15 -9 8 0 12 4 9 9 -3 4 -9 8 -15 8 -5 0 -9
-4 -9 -8z"/>
<path d="M3189 5963 c-13 -16 -12 -17 4 -4 16 13 21 21 13 21 -2 0 -10 -8 -17
-17z"/>
<path d="M2975 5861 c-3 -5 -2 -12 3 -15 5 -3 9 1 9 9 0 17 -3 19 -12 6z"/>
<path d="M3196 5842 c-3 -5 1 -9 9 -9 8 0 12 4 9 9 -3 4 -7 8 -9 8 -2 0 -6 -4
-9 -8z"/>
<path d="M2865 5240 c-3 -6 1 -7 9 -4 18 7 21 14 7 14 -6 0 -13 -4 -16 -10z"/>
<path d="M2825 5060 c-3 -6 1 -7 9 -4 18 7 21 14 7 14 -6 0 -13 -4 -16 -10z"/>
<path d="M1033 8145 c0 -8 4 -12 9 -9 5 3 6 10 3 15 -9 13 -12 11 -12 -6z"/>
<path d="M2710 8126 c0 -2 7 -7 16 -10 8 -3 12 -2 9 4 -6 10 -25 14 -25 6z"/>
<path d="M3025 8120 c-3 -6 1 -7 9 -4 18 7 21 14 7 14 -6 0 -13 -4 -16 -10z"/>
<path d="M787 8079 c7 -7 15 -10 18 -7 3 3 -2 9 -12 12 -14 6 -15 5 -6 -5z"/>
<path d="M2545 8080 c-3 -6 1 -7 9 -4 18 7 21 14 7 14 -6 0 -13 -4 -16 -10z"/>
<path d="M2877 8073 c-10 -9 -9 -23 1 -23 5 0 9 7 9 15 0 17 -1 18 -10 8z"/>
<path d="M2706 8042 c-3 -5 1 -9 9 -9 8 0 12 4 9 9 -3 4 -7 8 -9 8 -2 0 -6 -4
-9 -8z"/>
<path d="M3573 7945 c0 -8 4 -12 9 -9 5 3 6 10 3 15 -9 13 -12 11 -12 -6z"/>
<path d="M2550 7696 c0 -2 8 -10 18 -17 15 -13 16 -12 3 4 -13 16 -21 21 -21
13z"/>
<path d="M1040 7626 c0 -2 8 -10 18 -17 15 -13 16 -12 3 4 -13 16 -21 21 -21
13z"/>
<path d="M855 7471 c-3 -5 -2 -12 3 -15 5 -3 9 1 9 9 0 17 -3 19 -12 6z"/>
<path d="M1495 7471 c-3 -5 -2 -12 3 -15 5 -3 9 1 9 9 0 17 -3 19 -12 6z"/>
<path d="M1410 7461 c0 -6 4 -13 10 -16 6 -3 7 1 4 9 -7 18 -14 21 -14 7z"/>
<path d="M1630 7298 c0 -4 4 -8 9 -8 6 0 12 4 15 8 3 5 -1 9 -9 9 -8 0 -15 -4
-15 -9z"/>
<path d="M1813 7135 c0 -8 4 -12 9 -9 5 3 6 10 3 15 -9 13 -12 11 -12 -6z"/>
<path d="M2170 6981 c0 -6 4 -13 10 -16 6 -3 7 1 4 9 -7 18 -14 21 -14 7z"/>
<path d="M1116 6882 c-3 -5 1 -9 9 -9 8 0 12 4 9 9 -3 4 -7 8 -9 8 -2 0 -6 -4
-9 -8z"/>
<path d="M1495 6511 c-3 -5 -2 -12 3 -15 5 -3 9 1 9 9 0 17 -3 19 -12 6z"/>
<path d="M1410 6501 c0 -6 4 -13 10 -16 6 -3 7 1 4 9 -7 18 -14 21 -14 7z"/>
<path d="M8796 4518 c3 -5 10 -6 15 -3 13 9 11 12 -6 12 -8 0 -12 -4 -9 -9z"/>
<path d="M6270 1539 c0 -5 5 -7 10 -4 6 3 10 8 10 11 0 2 -4 4 -10 4 -5 0 -10
-5 -10 -11z"/>
</g>
</svg>
